<svg xmlns="http://www.w3.org/2000/svg" preserveAspectRatio="xMidYMid" viewBox="0 0 256 256"><defs><linearGradient id="a" x1=".242%" x2="115.269%" y1="50%" y2="50%"><stop offset="0%" stop-color="#ED358C"/><stop offset="16%" stop-color="#E9388C"/><stop offset="30%" stop-color="#DE418C"/><stop offset="43%" stop-color="#CC508C"/><stop offset="57%" stop-color="#B2658D"/><stop offset="70%" stop-color="#90808D"/><stop offset="83%" stop-color="#67A18E"/><stop offset="95%" stop-color="#37C78F"/><stop offset="100%" stop-color="#22D88F"/></linearGradient><linearGradient id="b" x1="66.762%" x2="28.197%" y1="17.457%" y2="151.84%"><stop offset="9%" stop-color="#22D88F"/><stop offset="90%" stop-color="#029DE0"/></linearGradient><linearGradient id="c" x1="10618.142%" x2="-1095.231%" y1="-66066%" y2="-79666%"><stop offset="9%" stop-color="#22D88F"/><stop offset="90%" stop-color="#029DE0"/></linearGradient><linearGradient id="d" x1="5973.425%" x2="9952.73%" y1="-73910%" y2="-74606%"><stop offset="9%" stop-color="#22D88F"/><stop offset="90%" stop-color="#029DE0"/></linearGradient></defs><path fill="url(#a)" d="m98.4 103.6-17.2 7.2L96.8 0l58.8 32.4z"/><path fill="url(#b)" d="M89.2 153.6 97.6 0l-74 46.4L0 188z"/><path fill="url(#c)" d="M250.8 76.8 218 9.6l-62.4 22.8L110 82.8 0 188l83.2 60.8 104-94.4z"/><path fill="url(#d)" d="m107.6 109.2-14.4 87.6 58.4 45.2 64 14 40.4-91.2z"/><path d="M48 48h160v160H48z"/><path fill="#FFF" d="M63.2 178h60v10h-60zM62 102.4A33.66 33.66 0 0 1 96.4 68c12.4 0 20 4 26 10.4l-9.2 10.8c-5.2-4.8-10.4-7.6-16.8-7.6-11.2 0-19.2 9.2-19.2 20.8 0 11.2 8 20.8 19.2 20.8 7.6 0 12.4-3.2 17.6-7.6l9.2 9.2c-6.8 7.2-14.4 12-27.2 12a34 34 0 0 1-34-34.4m71.2-33.6H148v54h28.8v12.4h-43.6z"/></svg>