<svg xmlns="http://www.w3.org/2000/svg" xml:space="preserve" viewBox="0 0 512 512"><path fill-rule="evenodd" d="M145.973 124.482c-1.766-15.299 12.003-8.814 10.244.41-2.584 2.458-7.357.442-10.244-.41m16.39-2.869c3.468-.354 6.774-.874 7.787-3.687-4.797-2.957-11.965 4.339-9.016 7.787 1.637-.139.189-3.362 1.229-4.1m-45.895 9.425c2.888-1.343 7.633-.836 9.016-3.687-8.596-2.994-24.076-.784-26.638 4.917 6.553-.405 12.033-5.605 17.622-1.23m-19.261 1.641c-1.862-.391-2.58 1.724-1.638 2.867 1.455-.048 1.649-1.356 1.638-2.867m-4.508 8.196c-.262-3.909-9.718-7.03-10.653-1.639.818 3.061 8.445 5.03 10.653 1.639m-15.98-3.687c-1.953.091-2.957 1.142-4.099 2.048 1.486.866 4.778.556 4.099-2.048m-4.916 11.062c7.218-.507 9.415 6.13 15.569 5.327 1.147-7.144-13.535-16.971-15.569-5.327m97.526 35.649c-2.152-7.142 4.438-13.272.409-18.851-5.578.445-10.402 26.334-2.458 26.23 5.704-.079 7.715-15.738 8.194-20.898-4.176 2.374-2.357 10.752-6.145 13.519m-68.433-2.865c.124-1.083-.568-1.347-1.639-1.233.027 1.106.936 1.971 1.639 1.233m20.08 11.883c.079-2.539-.021-4.897-2.048-5.327-1.543-.175-1.451 1.281-2.46 1.641.563 2.166 1.707 3.757 4.508 3.686m-19.67 13.114c7.857.884 13.118 6.552 20.489 6.554-5.878-3.957-11.985-7.683-21.309-8.194-.297 1.118.814.825.82 1.64m61.877 6.146c-.611-2.805-1.828-5.005-3.277-6.968.533 2.88 1.268 5.559 3.277 6.968m-45.077 9.014c-5.143-6.882-13.337-12.879-22.537-14.343 1.299 10.993 13.519 11.072 22.537 14.343m-13.931 2.457c-3.512-5.911-9.533-9.317-16.803-11.471 4.086 5.078 7.829 12.646 16.803 11.471m-18.851-5.734c1.399 2.429 4.916 4.912 4.099 8.195-3.593-1.05-5.34-3.949-9.016-4.917 1.952 2.711 9.402 14.729 13.931 14.345 2.891-.25 4.198-3.441 3.688-8.606-2.215-4.755-9.266-6.853-12.702-9.017m20.899 10.654c.911 2.505 1.231 5.598 4.509 5.735-.558-2.855-2.226-4.604-4.509-5.735m-2.869 1.231c-1.528-.167-2.403.324-2.457 1.636.459.09.638.454.818.819 1.31-.051 1.806-.927 1.639-2.455m70.073 9.423c.427-2.316.861-6.778 0-9.016-.526 2.302-2.505 7.48 0 9.016m-28.684-8.606c.313 2.422-.858 6.323 1.229 6.97.091-1.793.509-5.831-1.229-6.97m19.259 9.426c-1.189-1.054-2.895.539-3.688-.408-.838-2.713-.491-6.61-2.868-7.787h-.818c-3.375 6.99-3.042 22.007 2.867 25.814 1.116 1.891 1.225 4.787 4.098 4.92 2.362-1.875 2.942-5.524 3.279-9.428-5.129-1.077-.351-9.918-2.87-13.111m12.295 4.505c.505-3.628 3.607-8.905 1.229-12.7-.785 3.591-2.271 8.652-1.229 12.7m-72.122 3.283c.653-1.873.14-5.05-1.23-6.148-.956 1.794-1.512 5.926 1.23 6.148m7.375 1.637c1.655 1.077 1.782 3.68 4.099 4.098 2.883-3.68-2.586-10.166-4.099-4.098m70.073 8.194c.003 1.256-1.643 2.974-.409 4.097.237-1.015 1.484-3.127.409-4.097m3.687 15.982c-.017-1.892.231-4.05-.818-4.915-.184 1.459-1.265 4.69.818 4.915m-52.041 16.804c.243 1.526.492 3.057 2.048 3.277 1.005-1.406.263-3.896-2.048-3.277m18.44 2.05c.57 1.082 2.208 3.231 3.277 2.454-.948-.699-2.042-3.401-3.277-2.454m38.928 4.508c-1.151 4.879 1.574 9.324 3.689 12.293.866-4.757.785-11.569-3.689-12.293m10.247 31.547c.619-1.239.838-5.057-.41-5.73-1.079 1.48-2.041 5.023.41 5.73m18.436 19.674c-.593-3.011-2.952-6.263-5.325-6.15.83 2.993.974 6.678 5.325 6.15m3.692 5.735c.017 1.896-.229 4.059.818 4.915.053-1.959.025-3.847-.818-4.915m-135.23.411c.006 1.501.809 2.196 1.641 2.869-.164-1.343-.356-2.648-1.641-2.869m149.982 22.535c-1.009-7.727-5.073-12.404-10.244-15.977.74 7.997 4.659 12.825 10.244 15.977m65.976 40.571c-.249-.232-1.946-.956-2.05 0 .616.474 1.726 1.439 2.05 0m207.761 30.324v4.508c-.666 1.385-.882 3.215-1.231 4.916-11.395 7.318-32.803 4.624-42.209 13.935-16.497-8.887-31.829 5.111-49.17 6.559-2.865.236-6.051-.241-9.021 0-10.246.827-20.252 3.223-30.731 4.096-10.745.895-21.512 1.551-32.781 2.05h-12.293c-50.825-2.669-101.077-9.506-138.508-26.228-18.661-8.338-35.838-18.567-51.632-30.735-15.37-11.835-31.147-24.993-42.21-39.747-11.778-15.711-23.562-30.989-34.012-48.352-10.081-16.759-19.504-34.412-27.864-54.094-8.247-19.408-14.123-38.613-19.672-62.287-3.627-15.484-7.455-33.015-13.932-47.534-2.522-5.654-5.458-10.282-5.736-15.574v-3.687c2.021-17.212 15.407-27.203 31.143-31.965 3.94-1.191 7.771-2.329 11.474-4.508.241-.139 2.602-.38 1.641-1.638-7.011-1.687-12.779 8.635-20.489 5.737-6.845-2.574-2.904-13.172 4.508-16.391 3.46-1.503 10.33-1.894 13.521-3.688 5.502-3.092 7.999-9.625 6.968-15.572-.611-3.514-4.258-5.364-4.098-8.196.224-3.949 7.285-7.383 10.653-9.835 4.121-2.999 8.999-6.745 8.606-11.474-.414-4.94-6.224-6.514-9.016-10.244C51.027 42 50.332 33.25 57.458 29.821c7.471-3.595 21.39-1.636 22.949 7.787 1.374 8.305-4.522 11.469-2.051 17.62 4.604 11.446 40.409-6.672 31.556 17.212 7.874 12.343 38.645 1.784 39.339 21.309 12.834.258 18.732 9.997 29.094 13.933 2.777 1.054 6.084 1.054 9.016 2.048 17.476 5.94 39.132 12.312 46.305 29.095-6.482 4.367-15.328 1.443-22.946-1.229-6.627-2.327-16.287-6.935-22.949-4.099-6.605 2.813-6.252 14.098-5.327 25.405 2.46 30.102 3.903 61.151 8.194 88.104 5.993 37.623 18.803 67.756 36.883 91.384 17.49 22.859 38.037 46.796 64.743 63.518 22.535 14.105 47.853 25.234 79.91 32.37 4.754 1.061 10.501 3.377 13.112 2.869 3.871-.744 12.201-12.001 15.166-14.75 7.049-6.554 16.534-15.724 26.631-7.789-1.372 10.925-11.161 13.433-13.523 23.362 6.071 3.863 12.509.366 20.082.815 8.812.524 15.569 5.577 22.951 4.508 4.711-.682 7.069-4.191 10.653-6.554 8.142 11.903 39.534-3.592 44.255 11.063m-88.927-30.324c-.174-1.322.541-3.543-.818-3.684-1.182.599-2.35 4.366.818 3.684M216.457 128.99c4.014 2.404 7.548 5.292 11.063 8.199 2.116-6.231-3.957-10.217-11.063-9.837zm110.231 302.011c1.563.329 2.694.641 2.869-1.227-1.46-.095-2.453.271-2.869 1.227m-56.552-36.063c-.138 1.93 3.755 1.967 4.512 1.639-.641-1.281-2.583-2.944-4.512-1.639m-9.835-7.784c.682.69 2.407.324 3.688.411.137-1.501-.458-2.278-.819-3.281-2.154-.236-2.749 1.077-2.869 2.87M181.623 219.55c-1.112-.942-1.919.784-2.459 0 1.335-10.166 3.48-25.818-.819-34.418-1.063-.928-2.745.326-3.277-.412 2.861-6.83 4.793-21.075 3.687-29.504-.389-2.971-1.932-8.255-3.687-9.425-4.41-2.936-8.423 1.576-11.476 2.459-1.921.56-4.057.16-6.146.408-8.263.996-17.031 3.46-22.537 6.146 2.87 1.913 6.938 2.624 8.194 6.146-7.14-.505-12.71-2.583-18.851-4.096.655 9.245-10.683 6.348-17.619 6.968 2.396.052 2.78 1.21 2.869 2.867.285 5.439-17.613 11.885-23.768 7.789-8.779 7.078 3.863 14.308 3.278 23.358-1.726 1.279-2.523 3.485-4.098 4.913-8.725.212-17.902 1.967-16.394 11.066-1.179-.688-3.039-1.147-4.508-.412-2.23 5.745 1.514 11.981 6.559 13.116 1.271-.37 1.567-1.711 3.278-1.639 11.396 2.179 15.408 9.737 14.753 24.174-.114 2.486.133 5.73-1.639 7.379-6.467-.443-12.463-16.405-2.05-16.8-2.497-3.674-4.388-9.155-9.016-9.018-5.305.158-7.686 8.542-11.474 11.475 5.46 3.017 18.283 11.343 7.785 16.801 5.197.779 8.097 2.84 10.244 5.734 3.578 4.832 3.464 12.072 6.148 15.985 5.431 7.922 8.298-7.106 14.75-.823 1.524.524-.671-1.48-.819-1.635-5.535-5.976-13.977-10.874-17.21-18.031 2.485-1.139 5.816.104 8.194.408.94-4.814-2.405-10.262-1.229-13.936.847-2.634 2.41-1.474 4.099-2.456.993-.578.216-2.73 2.05-2.048-.011 5.626-3.401 15.094.407 19.259 5.561.998 7.167-8.565 11.886-8.605 2.636-.023 5.127 4.617 6.965 6.966 2.208 2.819 5.209 6.283 4.508 9.423-1.476 6.62-12.594 1.58-16.391-1.23 2.314 9.186 16.553 10.612 17.21 22.543.075 1.331-.597 3.031-.409 4.504.805 6.296 6.676 10.975 12.702 6.97.886 2.258 1.002 5.285 3.281 6.146 1.996-1.688 1.287-6.089 2.457-8.608 7.15 1.497 10.883 4.94 13.112 10.654 1.104 2.827.819 8.067 5.327 8.196.69-6.986-4.784-11.315-5.735-18.031 3.673 5.926 16.922 12.338 16.392 21.72-.352 6.188-7.706 6.861-14.753 7.785 6.716 2.308 9.529 9.83 16.801 12.292 1.954.666 4.464.096 6.556.823 5.321 1.851 13.829 12.759 11.476 19.67-11.338 5.714-20.184-9.73-32.784-9.423 5.313 6.774 14.004 9.028 21.309 12.293 7.862 3.51 15.734 7.106 23.358 10.653 17.972 8.359 30.447 19.296 42.209 33.193-8.161 4.45-32.897-2.952-18.031-8.2-5.171-.175-10.644-3.418-15.164-1.634 2.396 15.636 22.968 13.095 38.522 15.569-1.416 2.682-3.412 4.786-4.919 7.377 1.199.707 2.856.965 4.919.819-.996 1.597-3.589 1.601-3.69 4.096 1.992 2.653 5.935 3.356 8.606 5.327 10.531-7.552 11.712 9.581 18.44 9.835 6.358.237 7.577-8.899 13.936-9.835-1.598 3.323-4.725 5.111-6.146 8.608 6.226-1.505 8.001-4.857 13.107-6.15 18.298-4.629 33.298 10.612 48.355 12.297 5.414.603 10.796 3.643 15.573 4.508 6.176 1.114 9.973-.919 14.751-3.277-7.277-6.795-23.986-4.149-29.912-12.297.229-1.409 1.193-2.083 2.05-2.865-19.18 4.213-31.256-7.281-39.34-18.031-23.662-6.112-44.421-15.133-54.504-34.831-.484-1.855 1.817-.915 1.233-2.87-8.319-9.257-16.634-18.655-23.358-29.505-2.324-3.746-3.915-8.454-6.558-11.473-1.674-1.913-4.483-2.966-6.146-4.92-1.821-2.142-2.069-4.824-4.92-5.734-1.096 1.634-.361 5.098-1.227 6.965-1.971-7.913-6.362-15.428-14.752-15.573-.156-5.755 4.493-6.703 6.965-9.835-3.254-3.913-4.038-8.841-5.736-14.75-4.128-14.359-7.539-29.359-11.066-42.62-4.674 1.745-5.913 6.926-8.194 11.065.225-5.92.502-11.792 3.689-14.755 1.457.183 1.617 1.664 2.457 2.46.77-2.792 3.412-5.396 2.048-9.014-1.058-1.634-4.151-.872-4.915-.819 2.022-4.949 3.72-13.931 1.231-19.67m164.734 243.007c3.543-1.514 6.732-3.377 8.192-6.97-3.851.965-9.281 2.42-8.192 6.97m.408-8.197c-2.37 1.313-5.036 2.341-6.554 4.508 3.397.203 7.377-3.207 6.554-4.508m-12.701 6.146c2.32-.619 4.803-3.015 4.508-4.919-2.694.27-6.861 2.191-4.508 4.919m1.639-9.427c-3.688-1.165-6.699 1.722-6.97 5.331 3.286-.815 5.51-2.69 6.97-5.331m-11.477.823c-3.602.628-6.296 2.162-7.377 5.323 4.403 1.747 6.657-2.037 7.377-5.323m-5.735 10.655c1.015.058 1.987.074 2.05-.823-.615-.65-2.337-.6-2.05.823m6.558-17.624c-5.734-.44-12.592 3.281-9.016 8.196 3.818-1.921 7.685-3.788 9.016-8.196m-28.278 7.789c3.581.503 4.517-3.593 6.97-2.874 1.423.898.558 4.088 2.865 4.101 5.36-1.09 7.29-8.404 4.097-13.523-7.224 1.271-13.833 5.247-13.932 12.296m1.638-10.655c-2.175 1.102-4.491 2.059-5.734 4.096 2.681-.116 6.674-3.073 5.734-4.096m-11.469 2.05c.229 1.09-1.688 2.084-.416 2.865.341-.515 2.496-2.541.416-2.865m-7.377 9.831c-.129.558-.586.782-.407 1.639h1.639c.111-1.073-.155-1.76-1.232-1.639m-6.146-2.046c-2.071.116-2.854 1.518-2.87 3.685 1.784-.396 3.41-.957 2.87-3.685m-41.393-20.901c-2.525-.111-3.295.279-.407.824 2.751.507 7.604.773 9.426 0-2.163-.025-7.752-.765-9.019-.824m12.297-6.554c-2.144-1.63-6.454-.449-8.605.408 1.241 3.41 7.335 1.896 8.605-.408m-13.111 30.732c10.22 5.356 24.292 11.203 38.926 9.424-10.634-5.207-26.448-7.428-38.926-9.424m-15.164-4.508c.979 1.344 3.291 1.352 4.915 2.051 3.025-2.924-3.624-4.571-4.915-2.051m-38.521-33.193c-2.766.241-5.776.233-6.556 2.462 2.635.977 6.448.37 6.556-2.462m-7.787 10.654c.963.873 2.734 1.913 3.279 0-.424-.433-2.925-.844-3.279 0m4.918-34.832c.372-1.713-2.891-2.361-3.277-.818.898.464 1.676 1.055 3.277.818m5.329 13.931c-.02-.562.193-.898.409-1.227-1.221-1.261-3.69-1.485-5.738-.819.328 1.971 3.61 2.794 5.329 2.046m.41 26.232c.524.558 1.934.558 2.458 0 .193-1.289-.512-1.676-1.229-2.054-.368.728-.99 1.197-1.229 2.054m12.704-47.128c-1.335-3.859-5.688-2.841-8.607-4.097-4.691-2.021-8.696-6.845-14.753-6.965h-.817c5.268 6.208 12.24 12.879 24.177 11.062m-21.311-15.158c-3.825-2.599-8.015-4.832-13.523-5.738 1.751 4.395 8.567 5.909 13.523 5.738m12.703 19.254c2.873 3.003 6.479 5.273 12.704 4.916-2.393-3.211-8.111-5.27-12.704-4.916m15.572 18.443c-4.219-2.924-10.855-7.668-16.391-6.559 3.202 4.176 9.639 7.303 16.391 6.559m-15.572 15.573c-.099.583-.674.687-.819 1.223 1.01 1.318 2.53-.948.819-1.223m9.425 12.293c.348 1.563 1.853 1.971 3.279 2.458.555-.948 1.646-1.36 1.229-3.277-.996-.599-4.578-.944-4.508.819m7.787-18.031c-1.269-.777-5.897-1.646-6.968 0 1.988.807 5.893 2.895 6.968 0m1.229-13.936c.41-3.048-3.038-3.061-4.508-2.05.138 2.05 2.85 1.527 4.508 2.05m4.507-22.127c-1.851-2.795-6.992-2.296-10.654-3.277-2.682-3.368-9.095-4.591-14.752-3.688 6.479 4.316 13.848 7.734 25.406 6.965m-.819 39.339c1.76 1.519 4.519 2.038 6.966 2.87.131-.965.646-1.539.409-2.87-1.193-1.376-6.37-2.087-7.375 0m-34.832-66.386c.41-1.912-.715-2.287-2.459-2.046-.618 2.121 1.426 1.576 2.459 2.046m9.835 4.92c-1.197-.304-.794-2.208-2.459-2.05-1.51 1.385 1.21 3.493 2.459 2.05m-28.275 2.869c-1.36-3.007-4.425-4.316-6.556-6.558 3.996-5.789-4.92-8.159-6.557-12.293-.019-1.247.865-1.593 1.229-2.462-3.443-2.017-7.419-3.505-9.426-6.961 1.585-1.147 5.81.341 7.375-.823-2.482-1.069-5.162-1.938-6.146-4.508 1.437-3.344 7.279-2.279 8.605-5.735-7.059-1.559-14.072-5.31-21.72-4.919.087 2.919 2.685 3.326 3.688 5.327-2.267-1.007-4.101-2.458-7.375-2.458-.245 2.021 1.064 2.487.821 4.508-2.235.183-3.368-.731-5.739-.407 1.69 3.771 6.024 4.902 7.378 9.016-1.676.424-3.951-.666-4.508 0 4.326 3.593 10.644 7.381 13.111 11.469-4.025-.748-6.329-3.227-10.242-4.096 3.276 6.487 11.253 7.839 17.21 11.065 6.098 3.301 11.562 8.625 18.852 9.835m-9.016 4.916c1.713.936 5.123 3.908 7.377 1.643-1.9-.842-4.889-2.754-7.377-1.643m-3.277-2.051c-1.153-1.867-7.036-2.861-8.604-1.639 2.674.77 5.194 2.845 8.604 1.639m-7.377 1.231c-.129.557-.582.781-.409 1.643.721-.237 2.407.49 2.459-.412-.636-.457-.855-1.331-2.05-1.231m-5.327-54.502c-1.118-3.851-2.611-8.071-5.736-11.062-1.683-1.613-3.313-1.58-4.508-3.693-3.167-5.572-1.649-13.439-5.737-19.254-.967-.315-2.832-.811-3.688 0 .077 2.687 6.313 9.058 2.051 12.293-9.424.374-13.052-7.128-22.128-5.739-2.044 5.294 5.182 8.014 3.276 11.886 13.036 4.184 23.389 13.249 36.47 15.569m-29.505 12.293c2.408 1.834 5.889 4.766 9.016 4.508-2.477-1.755-4.756-5.888-9.016-4.508m-4.508-3.684c-1.063-3.307-2.906-5.835-6.966-6.146.826 3.542 4.675 4.067 6.966 6.146m-6.966 10.654c2.194 1.501 4.373 5.181 6.557 5.327-1.597-2.092-3.543-6.013-6.557-5.327m2.87-28.278c.212-.607.604-1.031.819-1.639-1.051-1.447-3.642-.657-4.097.823.806.558 2.34.392 3.278.816m63.517 16.392c-.058-3.526-3.975-5.572-6.967-3.685.948 2.604 3.805 3.295 6.967 3.685m-38.523-53.677c.069-.678-2.523-.678-2.457 0 .562.124 2.472 1.85 2.457 0m-15.978-1.643h-1.641c-.563.527-.405 1.784-.41 2.865.749.112 2.298 1.48 2.87.415-1.014-.357.118-2.852-.819-3.28m-30.737-.412c1.358 3.09 6.855 2.861 7.787-.407-2.332-.903-5.767-.275-7.787.407m1.232-11.474c-1.585-.079-3.021-.013-4.101.412.319 1.788 4.09 1.47 4.101-.412m3.686-65.973c-2.106.973-6.498-.975-8.604 0 1.865 7.383 15.688 3.408 14.753-2.46-.794-4.978-13.939-3.745-18.441-3.277 3.489 2.52 9.035 2.984 12.292 5.737m-16.39 7.785c.771 1.142 2.89.934 4.098 1.639.237-.854 1.017-1.168.819-2.458-1.075-.568-4.943-1.015-4.917.819m20.9-1.638c-.221.894-.994 2.651.407 2.869.976-.688.772-2.275-.407-2.869m11.474-24.588c-.108-1.198.925-1.256.819-2.458-1.666-.163-2.857.149-2.87 1.638.78.178 1.029.883 2.051.82m-.41-90.972c-1.632 10 7.378 22.097 18.029 18.439.497-3.774-1.225-5.329-1.229-8.604 2.718-.659 4.318 1.951 5.736 1.229-3.986-7.213-14.589-7.81-22.536-11.064m-4.51-9.425c3.602.713 9.255.352 10.656-2.459-2.721-1.818-10.885-2.305-10.656 2.459m-9.835-28.686c.788-7.959-8.938-12.357-14.75-6.965-3.633 3.368-5.211 11.502.409 14.343-.638-2.096-2.501-2.963-2.048-6.146 4.271-2.442 12.102 1.191 16.389-1.232m-2.865 26.226c1.042-.595 2.607-.666 2.458-2.458-1.26.127-3.407 1.485-2.458 2.458m-8.608 30.324c5.11.121 8.963-2.761 13.933-2.867 4.302-.091 8.402 1.189 13.523.819-3.657-10.733-21.426-1.36-27.456 2.048m-7.785 18.851c9.669-1.229 23.14-7.591 36.061-6.146 4.874.544 9.143 3.287 11.883 5.327-1.397-1.491-3.052-7.61 0-8.604 6.725 1.281 6.949 13.987 15.162 12.293 4.184-.863 5.458-8.979 3.279-13.933 3.127 2.2 4.738 5.916 9.016 6.967-.976-3.942-3.813-6.023-5.736-9.016 1.208-1.522 2.79-2.674 2.457-5.739-11.727-1.127-22.136 5.203-33.193 7.377-8.581 1.69-14.967 3.364-22.535 5.327-5.69 1.475-12.021 2.51-16.394 6.147m-34.422 84.827c-.563.522-.714 2.448.409 2.458.337-.297 1.1-2.836-.409-2.458m14.34-48.764c-17.969 2.851 1.184 21.961 11.886 17.212 1.355-2.081.934-3.988.819-6.97 6.235.611 10.926-2.426 16.393-1.227.882 1.905-.786 3.518-1.23 5.325 18.593-1.179 27.799-15.788 47.943-18.029 2.503-.279 5.356.164 8.198 0 8.483-.495 17.88-2.067 26.636-3.689 8.591-1.588 16.446-4.747 23.766-6.554 9.187-2.271 23.163-8.271 21.311-20.491-.212-1.391-1.177-2.641-2.05-4.098-48.834-4.722-85.346 14.422-123.754 22.129-4.614.925-10.224.31-13.934 4.096 1.342 3.302 6.058 3.231 8.194 5.737-1.068 1.252-3.709.932-4.096 2.87.904 3.466 6.042 2.694 6.556 6.558-8.157 5.75-25.261-1.584-21.309-13.114-12.325 2.701-30.27 5.385-30.323 19.26-.025 6.115 3.62 11.771 7.784 15.162-2.821-12.91 1.974-32 17.21-24.177m15.164 76.629c.373-2.775-4.188-4.718-5.736-2.867 1.51 1.357 3.874 1.858 5.736 2.867m-14.343 5.327c2.898 10.076 3.841 22.113 11.474 27.456-1.149-11.828-5.346-20.607-11.474-27.456m17.211-10.654c1.276-5.785-7.211-8.051-7.785-4.099-.501 3.442 4.926 3.042 7.785 4.099M55 211.356c-1.85-2.023-6.493-3.277-9.834-2.458 1.179 2.901 8.433 7.194 9.834 2.458m-4.917-18.029c1.851-1.154 3.815-2.198 4.096-4.92-2.378-1.78-8.071-2.031-8.604.824-.403 2.158 2.489 3.033 4.508 4.096m5.327 6.965c.179-1.408-.162-2.295-.41-3.279-2.102-.052-3.083 1.015-3.278 2.871 1.02.344 2.195.535 3.688.408m-28.685-2.048c-.316-1.05-.41-2.323-1.229-2.868-1.019 1.103-1.058 3.084 1.229 2.868m4.098-27.864c-1.839-.717-4.561.048-5.327 1.638.86.776 2.098 1.181 3.278 1.637.414-1.356 2.267-1.281 2.049-3.275m4.505 52.861c-1.06-2.354-1.193-5.635-3.276-6.965-5.611.798-.052 8.859 3.276 6.965m7.787 44.255c4.001 9.673 8.224 20.128 16.803 24.586-6.415-7.137-7.929-18.946-12.295-27.455-1.51-2.936-3.919-5.219-5.327-8.193-3.313-7.003-4.84-15.174-11.473-18.441 2.614 10.305 8.213 19.631 12.292 29.503m112.693 153.671c-2.48-8.446-9.137-12.722-18.441-14.343-2.3-5.485-8.938-6.629-10.244-13.112-.212-1.331 2.538-1.801 1.641-2.458-12.472 2.362-12.912-10.857-18.851-16.393-14.987.271-12.199-18.272-20.489-27.862-2.368-2.744-4.716-3.377-7.377-6.146-4.095-12.691-14.782-19.129-20.899-30.323-5.433-9.947-6.576-21.167-15.571-28.278 7.117 24.095 22.364 44.463 36.061 64.748 10.964 16.23 18.42 31.688 30.733 44.663 4.184 4.403 8.908 7.352 13.934 11.473 8.549 7.01 14.436 20.014 29.503 18.031m-1.641-27.867c-.441-1.755-3.602-2.939-5.327-2.046a20.7 20.7 0 0 0 5.327 2.046m15.162-10.654c-2.776-3.235-8.588-4.467-13.932-6.555-6.629-2.595-16.087-5.052-20.898-2.05.484 4.021 3.687 5.327 5.736 7.785 5.693.877 8.951 3.655 14.341 4.096 6.353.525 12.286.242 14.753-3.276m195.467 93.434c-12.4-5.655-30.586.707-43.848-2.462-2.503-.599-4.716-2.32-6.965-2.458-2.237-.137-4.841 1.044-6.966 1.231-11.357 1.01-21.725-.112-32.37-1.643-7.469-1.073-15.424-1.493-22.132-3.277-6.425-1.705-13.07-5.639-19.67-8.196-6.697-2.591-13.669-5.173-20.079-7.785-12.646-5.152-26.086-14.068-39.34-17.619 8.941 9.498 24.334 12.55 34.834 20.489-14.838-4.15-26.034-11.939-39.34-17.62 10.367 9.282 24.833 14.904 39.34 20.896 14.447 5.972 30.146 11.024 47.122 13.523 33.721 4.967 73.272 12.344 109.414 4.921m10.654-1.231c-2.104.084-4.725-.354-4.915 1.639 1.783 1.53 4.782 1.371 4.915-1.639m22.128-48.356c.582 3.028 4.978 2.125 4.512-1.23-2.234-.317-3.202.632-4.512 1.23m34.012 21.309c-11.016-.266-24.605-4.071-36.063-3.685-4.396.146-9.739 1.198-11.062 5.73 3.381 1.372 7.003.549 11.062.416 13.291-.449 29.531 5.523 36.063-2.461m11.066-.82c-1.917-.004-2.482 1.348-2.869 2.865.527.565 1.779.412 2.869.416-.195-1.813.562-2.041 0-3.281m24.178-1.637c-2-.304-2.745 2.183-2.05 3.28 1.289.195 1.601-.586 2.461-.823.296-1.252-.707-1.206-.411-2.457m34.009 2.457c-8.389-.894-18.186-.341-25.813.823 4.491 4.229 20.622 1.53 25.813-.823m-394.21-249.151c4.042 2.246 7.772 6.978 13.114 6.558-1.443-1.971-3.489-3.341-4.92-5.325 1.522-.12 2.815-.463 3.279-1.64-4.984-3.487-11.376-7.746-13.932-12.297 1.687 3.269 4.269 8.477 2.459 12.704m52.453 3.282c-.877-.898-.482-3.073-1.641-3.688-.261 1.783.893 4.276 1.641 3.688m-37.701 35.653c.628 6.747 4.94 9.806 5.327 16.8-4.79-5.454-7.464-13.027-10.654-20.083-.313 8.535 2.267 13.823 4.508 19.674 1.725 4.496 3.342 9.773 7.785 11.063 2.075-.387 1.959-2.966 4.101-3.281 2.278.328 3.464 3.904 4.915 3.692-1.094-1.23-1.435-3.21-1.639-5.327.396-1.518 2.566-1.26 3.277-2.462-4.121-8.443-10.028-15.105-17.62-20.076" clip-rule="evenodd"/></svg>