<svg xmlns="http://www.w3.org/2000/svg" viewBox="0 0 73 73"><g fill="none" fill-rule="nonzero" transform="translate(2 2)"><rect width="71" height="71" x="-1" y="-1" fill="#000" stroke="#000" stroke-width="2" rx="14"/><path fill="#FFF" d="M58.307 21.428q-3.617-6.195-9.812-9.812Q42.299 8.001 34.96 8q-7.337 0-13.533 3.616t-9.812 9.812T8 34.961q0 8.812 5.143 15.85 5.143 7.04 13.287 9.742.948.175 1.405-.246.456-.421.456-1.052l-.018-1.896a314 314 0 0 1-.018-3.124l-.807.14q-.772.14-1.949.123a15 15 0 0 1-2.44-.246 5.45 5.45 0 0 1-2.351-1.053 4.45 4.45 0 0 1-1.545-2.158l-.35-.808q-.352-.807-1.107-1.79-.754-.984-1.527-1.334l-.245-.176a2.6 2.6 0 0 1-.457-.422 2 2 0 0 1-.315-.491q-.106-.246.175-.405.281-.157 1.018-.157l.702.105q.702.14 1.738.843a5.7 5.7 0 0 1 1.702 1.825q.808 1.439 1.949 2.194 1.14.755 2.299.755 1.158 0 2-.175a7 7 0 0 0 1.58-.527q.317-2.353 1.72-3.616-2-.211-3.598-.632-1.596-.422-3.3-1.37t-2.826-2.352-1.842-3.686-.72-5.266q0-4.248 2.774-7.232-1.3-3.195.245-7.161 1.019-.316 3.02.473 2 .79 2.93 1.352t1.493.948a25 25 0 0 1 6.74-.912q3.476 0 6.741.912l1.334-.842q1.369-.843 3.23-1.545t2.844-.386q1.58 3.968.28 7.161 2.774 2.984 2.774 7.232 0 2.984-.72 5.283t-1.86 3.687-2.844 2.334q-1.703.948-3.3 1.37-1.597.421-3.598.632 1.825 1.58 1.825 4.985v7.407q0 .631.44 1.052.438.42 1.386.246 8.145-2.703 13.288-9.742 5.142-7.038 5.142-15.85-.001-7.335-3.616-13.532"/></g></svg>