<svg xmlns="http://www.w3.org/2000/svg" fill="#0868AC" stroke="#0868AC" viewBox="0 0 32 32"><path d="M18.082 2.72c-.608.9-.971 2.01-.971 3.204 0 .858.187 1.673.523 2.405l-.015-.036a7.9 7.9 0 0 0 4.454 4.194l.054.018c.081.031.16.057.245.087l.11.034c.115.037.231.079.35.105a6 6 0 0 0 1.759.258 6.12 6.12 0 0 0 5.58-3.599l.016-.039a5.37 5.37 0 0 1-6.207 1.655l.036.013a6 6 0 0 1-.686-.214l.042.014a8 8 0 0 1-.82-.338l.047.021a8 8 0 0 1-1.372-.84l.02.015c-1.755-1.2-2.891-3.191-2.891-5.448 0-.968.209-1.888.585-2.716l-.017.041zm-6.931 2.406a9.1 9.1 0 0 0-1.449 4.959c0 1.622.419 3.146 1.155 4.47l-.024-.047c.278.548.559 1.011.871 1.451l-.024-.035c.293.467.621.872.99 1.234l.001.001q.202.226.43.45l.112.112q.215.204.437.406l.02.016q.253.221.517.427c.043.029.079.062.12.091q.262.201.535.395l.019.011c.077.056.16.107.247.162.035.022.075.052.112.075q.196.126.397.246.03.014.06.029c.112.069.235.135.352.196.041.025.081.044.125.067q.124.063.246.127l.04.017q.255.125.51.237.062.024.115.049.21.09.42.171c.062.021.121.046.18.065.127.047.262.091.387.135l.175.056c.151.057.339.113.531.157l.03.006c9.91 1.641 12.204-5.992 12.204-5.992-1.738 2.269-4.449 3.718-7.498 3.718a9.4 9.4 0 0 1-2.892-.452l.067.019q-.283-.073-.561-.162c-.06-.017-.112-.036-.17-.054-.13-.045-.264-.087-.39-.136l-.18-.067c-.141-.056-.284-.109-.42-.169-.042-.019-.081-.031-.114-.05-.175-.079-.351-.156-.522-.24l-.257-.134-.149-.075q-.168-.089-.331-.187a1 1 0 0 1-.08-.046l.003.002c-.132-.082-.271-.162-.397-.247q-.062-.038-.121-.077l-.26-.17c-.18-.125-.356-.26-.535-.391-.04-.036-.079-.066-.117-.099a11.94 11.94 0 0 1-4.027-5.68l-.024-.084a8.8 8.8 0 0 1-.447-2.797c0-1.612.425-3.125 1.17-4.433l-.023.044zM2.91 8.34A12.46 12.46 0 0 0 1 15.006c0 2.266.599 4.392 1.647 6.228l-.033-.062q.07.147.147.286.044.096.096.187c.016.034.039.07.059.102q.05.097.101.19l.196.332c.037.061.071.121.112.182.07.117.15.234.222.351.032.05.062.097.099.146q.182.286.387.556.144.2.3.394.053.07.107.144l.275.336c.035.038.069.084.105.124q.185.22.382.437l.006.008q.242.303.526.545l.005.005q.149.156.306.306l.126.121q.207.197.425.386l.006.004.071.062c.127.111.256.222.387.325l.156.131c.106.085.217.166.325.25l.171.131c.116.087.24.174.359.259q.065.047.132.091l.037.029.35.231.15.1q.277.175.55.34.079.039.154.085c.135.077.275.156.411.229q.113.062.23.117.14.078.292.156.04.012.072.03l-.002-.001q.06.029.12.059a11 11 0 0 0 .57.264l-.006-.003q.269.118.547.227c.043.012.087.034.131.05q.255.097.514.19l.062.023c.192.065.381.127.575.187.045.012.091.029.139.041.2.06.392.131.592.171 12.837 2.339 16.568-7.719 16.568-7.719-3.134 4.081-8.695 5.157-13.963 3.96-.195-.045-.39-.107-.587-.165q-.357-.106-.709-.227l-.077-.03c-.17-.057-.334-.121-.5-.185q-.068-.027-.137-.05a19 19 0 0 1-.541-.23c-.039-.012-.071-.03-.11-.045q-.227-.104-.452-.212-.068-.03-.132-.065c-.117-.055-.235-.119-.35-.179q-.118-.057-.234-.12c-.142-.075-.284-.156-.425-.234q-.065-.043-.14-.082-.277-.164-.549-.337-.075-.046-.147-.097-.199-.123-.39-.259c-.044-.029-.084-.06-.129-.091q-.187-.129-.369-.265-.08-.062-.165-.125c-.11-.087-.221-.169-.331-.26l-.147-.119q-.213-.171-.419-.35a.3.3 0 0 0-.045-.038l-.001-.001-.434-.395-.125-.117q-.154-.156-.312-.307l-.122-.125q-.198-.197-.386-.404l-.019-.02a21 21 0 0 1-.391-.444c-.034-.037-.066-.08-.1-.121l-.284-.346q-.216-.278-.425-.561a13.45 13.45 0 0 1-2.881-8.348c0-2.053.457-4 1.275-5.743l-.035.083z"/></svg>