<svg fill="#0868AC" viewBox="0 0 32 32" version="1.1" xmlns="http://www.w3.org/2000/svg" stroke="#0868AC"><g id="SVGRepo_bgCarrier" stroke-width="0"></g><g id="SVGRepo_tracerCarrier" stroke-linecap="round" stroke-linejoin="round"></g><g id="SVGRepo_iconCarrier"> <title>jquery</title> <path d="M18.082 2.72c-0.608 0.9-0.971 2.010-0.971 3.204 0 0.858 0.187 1.673 0.523 2.405l-0.015-0.036c0.88 1.958 2.48 3.461 4.454 4.194l0.054 0.018c0.081 0.031 0.16 0.057 0.245 0.087l0.11 0.034c0.115 0.037 0.231 0.079 0.35 0.105 0.527 0.164 1.132 0.258 1.759 0.258 2.482 0 4.619-1.476 5.58-3.599l0.016-0.039c-0.992 1.246-2.51 2.038-4.212 2.038-0.705 0-1.378-0.136-1.995-0.383l0.036 0.013c-0.262-0.066-0.477-0.134-0.686-0.214l0.042 0.014c-0.317-0.111-0.572-0.218-0.82-0.338l0.047 0.021c-0.517-0.252-0.96-0.527-1.372-0.84l0.020 0.015c-1.755-1.2-2.891-3.191-2.891-5.448 0-0.968 0.209-1.888 0.585-2.716l-0.017 0.041zM11.151 5.126c-0.909 1.403-1.449 3.118-1.449 4.959 0 1.622 0.419 3.146 1.155 4.47l-0.024-0.047c0.278 0.548 0.559 1.011 0.871 1.451l-0.024-0.035c0.293 0.467 0.621 0.872 0.99 1.234l0.001 0.001c0.134 0.152 0.279 0.3 0.43 0.45l0.112 0.112c0.142 0.137 0.29 0.271 0.437 0.406l0.020 0.016q0.253 0.221 0.517 0.427c0.043 0.029 0.079 0.062 0.12 0.091 0.175 0.135 0.352 0.265 0.535 0.395l0.019 0.011c0.077 0.056 0.16 0.107 0.247 0.162 0.035 0.022 0.075 0.052 0.112 0.075 0.132 0.085 0.262 0.165 0.397 0.246 0.021 0.009 0.040 0.020 0.060 0.029 0.112 0.069 0.235 0.135 0.352 0.196 0.041 0.025 0.081 0.044 0.125 0.067 0.082 0.041 0.165 0.085 0.246 0.127l0.040 0.017c0.169 0.084 0.341 0.161 0.51 0.237 0.042 0.017 0.079 0.031 0.115 0.049 0.139 0.060 0.28 0.117 0.42 0.171 0.062 0.021 0.121 0.046 0.18 0.065 0.127 0.047 0.262 0.091 0.387 0.135l0.175 0.056c0.151 0.057 0.339 0.113 0.531 0.157l0.030 0.006c9.91 1.641 12.204-5.992 12.204-5.992-1.738 2.269-4.449 3.718-7.498 3.718-1.009 0-1.981-0.159-2.892-0.452l0.067 0.019q-0.283-0.073-0.561-0.162c-0.060-0.017-0.112-0.036-0.17-0.054-0.13-0.045-0.264-0.087-0.39-0.136l-0.18-0.067c-0.141-0.056-0.284-0.109-0.42-0.169-0.042-0.019-0.081-0.031-0.114-0.050-0.175-0.079-0.351-0.156-0.522-0.24l-0.257-0.134-0.149-0.075q-0.168-0.089-0.331-0.187c-0.031-0.015-0.056-0.030-0.080-0.046l0.003 0.002c-0.132-0.082-0.271-0.162-0.397-0.247-0.042-0.024-0.081-0.052-0.121-0.077l-0.26-0.17c-0.18-0.125-0.356-0.26-0.535-0.391-0.040-0.036-0.079-0.066-0.117-0.099-1.869-1.453-3.279-3.416-4.027-5.68l-0.024-0.084c-0.284-0.835-0.447-1.797-0.447-2.797 0-1.612 0.425-3.125 1.17-4.433l-0.023 0.044zM2.91 8.34c-1.199 1.892-1.91 4.196-1.91 6.666 0 2.266 0.599 4.392 1.647 6.228l-0.033-0.062c0.046 0.099 0.097 0.192 0.147 0.286 0.029 0.065 0.061 0.125 0.096 0.187 0.016 0.034 0.039 0.070 0.059 0.102 0.033 0.065 0.067 0.127 0.101 0.19l0.196 0.332c0.037 0.061 0.071 0.121 0.112 0.182 0.070 0.117 0.15 0.234 0.222 0.351 0.032 0.050 0.062 0.097 0.099 0.146q0.182 0.286 0.387 0.556c0.097 0.134 0.195 0.264 0.3 0.394 0.034 0.047 0.072 0.095 0.107 0.144l0.275 0.336c0.035 0.038 0.069 0.084 0.105 0.124 0.122 0.147 0.252 0.291 0.382 0.437l0.006 0.008c0.162 0.203 0.336 0.383 0.526 0.545l0.005 0.005c0.1 0.104 0.2 0.206 0.306 0.306l0.126 0.121c0.139 0.131 0.279 0.261 0.425 0.386l0.006 0.004 0.071 0.062c0.127 0.111 0.256 0.222 0.387 0.325l0.156 0.131c0.106 0.085 0.217 0.166 0.325 0.25l0.171 0.131c0.116 0.087 0.24 0.174 0.359 0.259 0.044 0.031 0.087 0.062 0.132 0.091l0.037 0.029 0.35 0.231 0.15 0.1c0.185 0.117 0.367 0.23 0.55 0.34 0.051 0.025 0.105 0.055 0.154 0.085 0.135 0.077 0.275 0.156 0.411 0.229 0.075 0.042 0.152 0.079 0.23 0.117 0.094 0.052 0.191 0.104 0.292 0.156 0.027 0.008 0.050 0.018 0.072 0.030l-0.002-0.001c0.041 0.019 0.080 0.039 0.12 0.059 0.15 0.075 0.306 0.147 0.469 0.219 0.039 0.015 0.070 0.029 0.101 0.045l-0.006-0.003c0.18 0.079 0.361 0.154 0.547 0.227 0.043 0.012 0.087 0.034 0.131 0.050 0.169 0.064 0.342 0.129 0.514 0.19l0.062 0.023c0.192 0.065 0.381 0.127 0.575 0.187 0.045 0.012 0.091 0.029 0.139 0.041 0.2 0.060 0.392 0.131 0.592 0.171 12.837 2.339 16.568-7.719 16.568-7.719-3.134 4.081-8.695 5.157-13.963 3.96-0.195-0.045-0.39-0.107-0.587-0.165q-0.357-0.106-0.709-0.227l-0.077-0.030c-0.17-0.057-0.334-0.121-0.5-0.185q-0.068-0.027-0.137-0.050c-0.185-0.075-0.362-0.151-0.541-0.23-0.039-0.012-0.071-0.030-0.11-0.045q-0.227-0.104-0.452-0.212-0.068-0.030-0.132-0.065c-0.117-0.055-0.235-0.119-0.35-0.179q-0.118-0.057-0.234-0.12c-0.142-0.075-0.284-0.156-0.425-0.234-0.042-0.030-0.091-0.055-0.14-0.082q-0.277-0.164-0.549-0.337-0.075-0.046-0.147-0.097-0.199-0.123-0.39-0.259c-0.044-0.029-0.084-0.060-0.129-0.091q-0.187-0.129-0.369-0.265c-0.052-0.042-0.109-0.082-0.165-0.125-0.11-0.087-0.221-0.169-0.331-0.26l-0.147-0.119q-0.213-0.171-0.419-0.35c-0.014-0.014-0.029-0.027-0.045-0.038l-0.001-0.001-0.434-0.395-0.125-0.117c-0.102-0.105-0.207-0.205-0.312-0.307l-0.122-0.125q-0.198-0.197-0.386-0.404l-0.019-0.020c-0.132-0.145-0.262-0.294-0.391-0.444-0.034-0.037-0.066-0.080-0.1-0.121l-0.284-0.346q-0.216-0.278-0.425-0.561c-1.796-2.276-2.881-5.185-2.881-8.348 0-2.053 0.457-4 1.275-5.743l-0.035 0.083z"></path> </g></svg>