<svg viewBox="0 0 32 32" xmlns="http://www.w3.org/2000/svg" fill="#000000"><g id="SVGRepo_bgCarrier" stroke-width="0"></g><g id="SVGRepo_tracerCarrier" stroke-linecap="round" stroke-linejoin="round"></g><g id="SVGRepo_iconCarrier"><title>file_type_julia</title><circle cx="8.309" cy="22.592" r="5.86" style="fill:#d5635c"></circle><path d="M8.309,28.9a6.309,6.309,0,1,1,6.309-6.309A6.316,6.316,0,0,1,8.309,28.9Zm0-11.719a5.41,5.41,0,1,0,5.41,5.41A5.416,5.416,0,0,0,8.309,17.182Z" style="fill:#cb3c33"></path><circle cx="16" cy="9.408" r="5.86" style="fill:#60ad51"></circle><path d="M16,15.717a6.309,6.309,0,1,1,6.309-6.309A6.316,6.316,0,0,1,16,15.717ZM16,4a5.41,5.41,0,1,0,5.41,5.41A5.416,5.416,0,0,0,16,4Z" style="fill:#389826"></path><circle cx="23.691" cy="22.592" r="5.86" style="fill:#aa79c1"></circle><path d="M23.691,28.9A6.309,6.309,0,1,1,30,22.592,6.316,6.316,0,0,1,23.691,28.9Zm0-11.719a5.41,5.41,0,1,0,5.41,5.41A5.416,5.416,0,0,0,23.691,17.182Z" style="fill:#9558b2"></path></g></svg>