<svg viewBox="0 0 32 32" xmlns="http://www.w3.org/2000/svg" xmlns:xlink="http://www.w3.org/1999/xlink" fill="#000000"><g id="SVGRepo_bgCarrier" stroke-width="0"></g><g id="SVGRepo_tracerCarrier" stroke-linecap="round" stroke-linejoin="round"></g><g id="SVGRepo_iconCarrier"><defs><linearGradient id="a" x1="-134.907" y1="204.572" x2="-134.896" y2="204.572" gradientTransform="matrix(1538, 0, 0, -961.25, 207495, 196661)" gradientUnits="userSpaceOnUse"><stop offset="0" stop-color="#e62d2a"></stop><stop offset="0.6" stop-color="#df3f3d"></stop><stop offset="0.8" stop-color="#df3f3d"></stop><stop offset="1" stop-color="#e62d2a"></stop></linearGradient><linearGradient id="b" x1="-134.907" y1="203.781" x2="-134.896" y2="203.781" gradientTransform="matrix(1538, 0, 0, -961.25, 207495, 195892)" xlink:href="#a"></linearGradient><linearGradient id="c" x1="-134.907" y1="205.363" x2="-134.896" y2="205.363" gradientTransform="matrix(1538, 0, 0, -961.25, 207495, 197430)" xlink:href="#a"></linearGradient></defs><title>file_type_scala</title><path d="M7.384,19.231v2.154c0,.363,7.833.971,12.937,2.154,2.465-.571,4.295-1.277,4.295-2.154V19.231c0-.877-1.83-1.582-4.295-2.154-5.1,1.183-12.937,1.791-12.937,2.154" style="fill:#7f0c1d"></path><path d="M7.384,10.615v2.154c0,.363,7.833.971,12.937,2.154,2.465-.571,4.295-1.277,4.295-2.154V10.615c0-.877-1.83-1.582-4.295-2.154-5.1,1.183-12.937,1.791-12.937,2.154" style="fill:#7f0c1d"></path><path d="M7.384,14.923v6.462c0-.538,17.232-1.615,17.232-4.308V10.615c0,2.692-17.232,3.769-17.232,4.308" style="fill:url(#a)"></path><path d="M7.384,6.308V12.77c0-.538,17.232-1.615,17.232-4.308V2c0,2.692-17.232,3.769-17.232,4.308" style="fill:url(#b)"></path><path d="M7.384,23.538V30c0-.538,17.232-1.615,17.232-4.308V19.231c0,2.692-17.232,3.769-17.232,4.308" style="fill:url(#c)"></path></g></svg>