<svg fill="#000000" viewBox="0 0 32 32" version="1.1" xmlns="http://www.w3.org/2000/svg"><g id="SVGRepo_bgCarrier" stroke-width="0"></g><g id="SVGRepo_tracerCarrier" stroke-linecap="round" stroke-linejoin="round"></g><g id="SVGRepo_iconCarrier"> <title>unrealengine</title> <path d="M24.91 18.161c-0.676 2.767-2.545 4.998-5.018 6.152l-0.056 0.023-1.473-1.656-2.484 2.499c-2.967-0.041-5.588-1.485-7.236-3.697l-0.017-0.024c0.238 0.077 0.515 0.132 0.801 0.153l0.012 0.001c0.034 0.006 0.074 0.009 0.114 0.009 0.408 0 0.739-0.331 0.739-0.739 0-0.033-0.002-0.066-0.006-0.098l0 0.004v-6.741c0-0.011 0.001-0.024 0.001-0.037 0-0.614-0.498-1.112-1.112-1.112-0.101 0-0.198 0.013-0.291 0.038l0.008-0.002c-1.15 0.265-2.069 3.135-2.069 3.135-0-0.026-0-0.057-0-0.088 0-2.754 1.22-5.223 3.148-6.896l0.011-0.010c1.269-1.102 2.857-1.869 4.609-2.144l0.052-0.007c-1.083 0.549-1.84 1.605-1.961 2.847l-0.001 0.015c0 1.577 0.95 1.386 1.23 1.153v9.097c0.052 0.122 0.114 0.228 0.187 0.323l-0.002-0.003c0.247 0.339 0.642 0.556 1.088 0.556 0.004 0 0.008-0 0.012-0h-0.001c0.85-0.162 1.592-0.546 2.187-1.088l-0.003 0.003v-7.363c-0.051-0.821-0.484-1.53-1.122-1.959l-0.009-0.006c0.113-0.018 0.244-0.028 0.377-0.028 0.552 0 1.064 0.172 1.485 0.466l-0.009-0.006c0.159-0.193 0.317-0.366 0.483-0.531l0.001-0.001c1.341-1.37 3.108-2.319 5.087-2.632l0.052-0.007c-1.483 1.194-2.482 2.938-2.685 4.918l-0.003 0.031c0 2.108 0.054 7.249 0.054 7.249 0.998 0.963 2.482-0.427 3.823-1.801zM16 30.396c-0 0-0 0-0 0-7.951 0-14.396-6.445-14.396-14.396s6.445-14.396 14.396-14.396c7.951 0 14.396 6.445 14.396 14.396 0 3.975-1.611 7.574-4.216 10.179l0-0c-2.605 2.605-6.204 4.216-10.179 4.216v0zM16 1.004c0 0 0 0-0 0-8.282 0-14.996 6.714-14.996 14.996s6.714 14.996 14.996 14.996c8.282 0 14.996-6.714 14.996-14.996 0-4.141-1.678-7.89-4.392-10.604v0c-2.714-2.714-6.463-4.392-10.604-4.392v0z"></path> </g></svg>