<svg xmlns="http://www.w3.org/2000/svg" viewBox="0 0 32 32"><path d="M24.91 18.161a9.16 9.16 0 0 1-5.018 6.152l-.056.023-1.473-1.656-2.484 2.499a9.16 9.16 0 0 1-7.236-3.697l-.017-.024c.238.077.515.132.801.153l.012.001a.74.74 0 0 0 .847-.828v.004-6.741l.001-.037a1.112 1.112 0 0 0-1.403-1.074l.008-.002c-1.15.265-2.069 3.135-2.069 3.135v-.088a9.1 9.1 0 0 1 3.148-6.896l.011-.01a9.2 9.2 0 0 1 4.609-2.144l.052-.007a3.58 3.58 0 0 0-1.961 2.847l-.001.015c0 1.577.95 1.386 1.23 1.153v9.097q.078.182.187.323l-.002-.003c.247.339.642.556 1.088.556h.012-.001a4.47 4.47 0 0 0 2.187-1.088l-.003.003v-7.363a2.54 2.54 0 0 0-1.122-1.959l-.009-.006a2.585 2.585 0 0 1 1.862.438l-.009-.006c.159-.193.317-.366.483-.531l.001-.001a9.1 9.1 0 0 1 5.087-2.632l.052-.007a7.26 7.26 0 0 0-2.685 4.918l-.003.031c0 2.108.054 7.249.054 7.249.998.963 2.482-.427 3.823-1.801zM16 30.396C8.049 30.396 1.604 23.951 1.604 16S8.049 1.604 16 1.604 30.396 8.049 30.396 16a14.35 14.35 0 0 1-4.216 10.179 14.35 14.35 0 0 1-10.179 4.216zm0-29.392C7.718 1.004 1.004 7.718 1.004 16S7.718 30.996 16 30.996 30.996 24.282 30.996 16c0-4.141-1.678-7.89-4.392-10.604A14.95 14.95 0 0 0 16 1.004"/></svg>